<svg id="a38d547c-b7e8-4465-890f-3b2911207519" data-name="Ebene 1" xmlns="http://www.w3.org/2000/svg" viewBox="0 0 512.3604 438.5067"><defs><style>.ecd1397c-7048-4e4f-a22b-013837004b83{fill:#353535;fill-rule:evenodd;}</style></defs><path id="fefc3115-3c9d-4da8-b429-688b70924ff7" data-name="Pfad 1" class="ecd1397c-7048-4e4f-a22b-013837004b83" d="M260.3613,41.108C139.36,41.108,41.108,139.36,41.108,260.3613S139.36,479.6147,260.3613,479.6147,479.6147,381.688,479.6147,260.3613h0C479.6147,139.36,381.6926,41.108,260.3613,41.108Zm-16.8167,189.25c1.3185,4.2865,0,6.9234-4.9457,9.2349a9.9526,9.9526,0,0,1-9.8914-8.572C228.7093,222.7752,240.253,223.7645,243.5446,230.3579Zm0,69.8973a20.9547,20.9547,0,0,1-10.8807-2.3078c-.9893-7.2535.33-21.1013-1.6458-31.652a75.1375,75.1375,0,0,0-16.4848,12.5266c-4.9457,4.6157-9.5614,10.8808-14.177,14.177a15.27,15.27,0,0,1-13.5177,2.3078c-9.2349-3.9564-8.9021-19.7819-10.5507-32.6422-5.6049,8.572-9.2349,19.4527-14.8371,28.3548a19.9265,19.9265,0,0,1-9.8914-5.6049c-4.2865-8.572-2.6379-22.75-4.2865-33.63-9.8914,10.8808-13.1886,28.3549-18.1333,44.18-6.5943.9894-9.5614,0-11.54-5.6049-2.3079-14.5071-1.6459-31.652-4.2865-47.8067-.33-2.9671-2.3078-5.605-.9893-8.572a10.9459,10.9459,0,0,1,5.2748-1.6459c2.9671.6593,2.9671.6593,5.9351,3.9564,2.6379,6.9235,2.3078,16.4848,3.9564,24.3985a115.9165,115.9165,0,0,1,19.1226-28.3549c15.4964-2.3078,12.5266,19.4528,14.8372,30.3326,4.9457-8.2428,8.572-17.4741,16.4848-22.75,1.9786-.9893,2.3078-1.9786,5.935.6593,7.5836,6.5943,5.2749,30.9964,8.2428,41.5424,3.2972-.6592,6.5943-3.9563,9.8914-7.2535,8.5721-8.572,17.8042-17.8042,29.0141-24.0684,10.5507.6593,14.177,8.9021,15.1663,21.1014S247.1728,295.64,243.5446,300.2552ZM363.2328,306.19c-18.1334,1.3184-31.652-15.1663-28.3549-34.2881-4.2864.33-25.0531.33-29.3432.9893,0,12.5266,3.2971,31.652-10.8808,27.3656a182.4088,182.4088,0,0,1-2.3078-23.0791c-.6592-5.2749.33-5.2749-1.3184-6.5943s-3.6263-1.3185-9.5614-.9893-4.2864.9893-7.2535.6592a114.7591,114.7591,0,0,1-3.2971,30.0035c-5.2749,5.2748-6.5943,1.9786-10.8808.9893.6593-10.2206.33-19.4528.6593-27.6956a40.1961,40.1961,0,0,1-8.9021,0,8.7832,8.7832,0,0,1-5.605-6.5943c-.6592-6.5943,6.2642-7.9128,13.5177-8.9021-.9893-9.8914.33-20.1157-.6592-30.6627a44.6905,44.6905,0,0,1-.6593-6.5942,6.9987,6.9987,0,0,1,5.605-5.9351,12.991,12.991,0,0,1,8.2428,5.605c1.9787,4.6156.9894,15.1663.9894,20.7712v14.177c5.2748.9893,11.21.6592,16.8148.9893a152.4636,152.4636,0,0,0,1.3185-32.3112c3.2971-17.145,14.5071-7.2535,14.5071,4.2865.33,11.21-2.3078,17.4741-1.6459,29.6733,4.2865.6592,21.7615,1.3185,28.3549,1.3185a42.4016,42.4016,0,0,0,6.2642-1.3185c1.3185-.6592,5.935-6.9235,11.8691-7.2535,12.8585-.9894,16.1556,2.6379,20.1157,5.935,3.2971,2.6379,7.2535,6.9235,7.2535,10.8807s-.9893,3.6263-2.967,5.9351l-26.7063-2.3078c-3.9564,13.8478,2.6379,24.3984,15.8255,22.42,7.2536-.9894,9.2349-7.5836,15.1663-10.2206C384.99,295.31,374.439,305.2009,363.2328,306.19Zm44.18-73.8538a392.42,392.42,0,0,0-.6593,65.2845c-1.6458,2.3078-5.2749,6.9234-10.2206,3.2971-3.6272-2.6379-3.9564-20.4421-4.2864-25.0531a262.8479,262.8479,0,0,1,2.3078-42.5318,71.6655,71.6655,0,0,1,.6592-11.8692c.9893-2.3078,5.2749-4.2864,5.9351-4.9457a11.39,11.39,0,0,1,7.5836,6.9235c.3255,2.96-.9939,5.5976-1.3231,8.8947Z" transform="translate(-41.108 -41.108)"/><path id="e63bdacf-ce4a-4e75-80fe-08948c5852f3" data-name="Pfad 2" class="ecd1397c-7048-4e4f-a22b-013837004b83" d="M553.4684,260.3613a18.1334,18.1334,0,1,1-18.1343-18.1333h0A18.2943,18.2943,0,0,1,553.4684,260.3613Z" transform="translate(-41.108 -41.108)"/></svg>